<svg width="16" height="14" viewBox="0 0 16 14" fill="none" xmlns="http://www.w3.org/2000/svg">
<path d="M3.97764 0.828765C4.0722 1.1846 3.8604 1.54973 3.50456 1.64429C2.65191 1.87089 2 2.6803 2 3.66666C2 4.65301 2.65191 5.46243 3.50456 5.68902C3.8604 5.78359 4.0722 6.14871 3.97764 6.50455C3.88307 6.86039 3.51795 7.07219 3.16211 6.97763C1.71445 6.59291 0.666667 5.24626 0.666667 3.66666C0.666667 2.08705 1.71445 0.74041 3.16211 0.355689C3.51795 0.261123 3.88307 0.472927 3.97764 0.828765ZM12.0224 0.828765C12.1169 0.472927 12.4821 0.261123 12.8379 0.355689C14.2855 0.74041 15.3333 2.08705 15.3333 3.66666C15.3333 5.24626 14.2855 6.59291 12.8379 6.97763C12.4821 7.07219 12.1169 6.86039 12.0224 6.50455C11.9278 6.14871 12.1396 5.78359 12.4954 5.68902C13.3481 5.46243 14 4.65301 14 3.66666C14 2.6803 13.3481 1.87089 12.4954 1.64429C12.1396 1.54973 11.9278 1.1846 12.0224 0.828765ZM8 1.66666C6.89543 1.66666 6 2.56209 6 3.66666C6 4.77123 6.89543 5.66666 8 5.66666C9.10457 5.66666 10 4.77123 10 3.66666C10 2.56209 9.10457 1.66666 8 1.66666ZM4.66667 3.66666C4.66667 1.82571 6.15905 0.333325 8 0.333325C9.84095 0.333325 11.3333 1.82571 11.3333 3.66666C11.3333 5.50761 9.84095 6.99999 8 6.99999C6.15905 6.99999 4.66667 5.50761 4.66667 3.66666ZM2.66667 11.5C2.66667 9.75109 4.08443 8.33332 5.83333 8.33332H10.1667C11.9156 8.33332 13.3333 9.75109 13.3333 11.5C13.3333 12.6966 12.3633 13.6667 11.1667 13.6667H4.83333C3.63672 13.6667 2.66667 12.6966 2.66667 11.5ZM5.83333 9.66666C4.82081 9.66666 4 10.4875 4 11.5C4 11.9602 4.3731 12.3333 4.83333 12.3333H11.1667C11.6269 12.3333 12 11.9602 12 11.5C12 10.4875 11.1792 9.66666 10.1667 9.66666H5.83333ZM1.65381 9.15086C1.93868 9.38413 1.98051 9.80416 1.74724 10.089C1.48824 10.4053 1.33333 10.8084 1.33333 11.2495C1.33333 11.5129 1.45481 11.7475 1.64742 11.9013C1.93514 12.1311 1.98215 12.5505 1.75242 12.8383C1.52268 13.126 1.1032 13.173 0.815472 12.9433C0.319623 12.5474 0 11.9355 0 11.2495C0 10.4893 0.26869 9.79011 0.715646 9.24429C0.948915 8.95942 1.36895 8.91759 1.65381 9.15086ZM14.3462 9.40139C14.6311 9.16812 15.0511 9.20995 15.2844 9.49482C15.7313 10.0406 16 10.7398 16 11.5C16 12.186 15.6804 12.7979 15.1845 13.1938C14.8968 13.4235 14.4773 13.3765 14.2476 13.0888C14.0178 12.8011 14.0649 12.3816 14.3526 12.1519C14.5452 11.9981 14.6667 11.7634 14.6667 11.5C14.6667 11.0589 14.5118 10.6559 14.2528 10.3396C14.0195 10.0547 14.0613 9.63466 14.3462 9.40139Z" fill="#818CF8"/>
</svg>
